<svg xmlns="http://www.w3.org/2000/svg" width="294.803" height="294.803" fill-rule="evenodd" stroke-linejoin="round" stroke-miterlimit="2"><g fill="#fff"><path d="M104.7 97.565H11.476V4.34H104.7zM15.642 8.507v84.89h84.89V8.507z"/><path d="M193.974 97.565H100.75V4.34h93.224zM104.916 8.507v84.89h84.89V8.507z"/><path d="M283.524 97.565H190.3V4.34h93.224zM194.466 8.507v84.9h84.9v-84.9zM104.7 186.565H11.476V93.34H104.7zM15.642 97.507v84.9h84.9v-84.9z"/><path d="M104.7 275.565H11.476V182.34H104.7zm-89.058-89.058v84.89h84.89v-84.89z"/><path d="M193.974 186.565H100.75V93.34h93.224zm-89.058-89.058v84.89h84.89v-84.89z"/><path d="M193.974 275.565H100.75V182.34h93.224zm-89.058-89.058v84.89h84.89v-84.89z"/><path d="M283.524 186.565H190.3V93.34h93.224zm-89.058-89.058v84.89h84.89v-84.89z"/><path d="M283.524 275.565H190.3V182.34h93.224zm-89.058-89.058v84.89h84.89v-84.89z"/><circle r="37.178" cy="50.75" cx="147.794"/><circle r="37.178" cy="139.75" cx="236.794"/><circle r="37.178" cy="229.75" cx="236.794"/><circle r="37.178" cy="229.75" cx="146.794"/><circle r="37.178" cy="229.75" cx="58.794"/></g><path d="M169.906 70.78h-11.54V56.328H136.07V70.78h-11.65V33.305h11.652V46.58h22.295V33.305h11.54zm77.244 64.48c4.593 0 8.067.84 10.475 2.52 2.4 1.737 3.585 4.313 3.585 7.73 0 1.905-.28 3.64-.896 5.154a9.68 9.68 0 0 1-2.857 3.865c-1.29 1.065-2.97 1.85-4.986 2.4-2.073.56-4.48.84-7.338.84h-34.9l7.45-9.635h28.345c1.4 0 2.4-.224 3.025-.672.616-.392.952-1.12.952-2.073s-.336-1.68-.952-2.073-1.625-.616-3.025-.616h-20.4c-2.4 0-4.537-.28-6.274-.784s-3.193-1.232-4.37-2.185a8.52 8.52 0 0 1-2.577-3.417c-.56-1.288-.84-2.745-.84-4.37 0-1.737.336-3.36.952-4.817.616-1.4 1.568-2.633 2.857-3.64s2.913-1.793 4.93-2.353c2.073-.56 4.48-.84 7.338-.84H260.2l-7.45 9.747h-25.98c-1.344 0-2.353.168-2.97.56-.672.392-1.008 1.064-1.008 2.017s.336 1.625 1.008 2.073c.616.336 1.625.56 2.97.56zM83.032 239.145l-7.506 9.635H42.42v-37.476h11.596v13.052h18.318l-6.6 8.46h-11.72v6.33zm89.068-9.467c0 2.745-.56 5.266-1.737 7.618a18.61 18.61 0 0 1-4.649 5.994c-2.017 1.737-4.425 3.08-7.17 4.033s-5.77 1.456-9.02 1.456H124.42v-23.36h11.652v13.724h13.444c1.625 0 3.08-.224 4.48-.672 1.344-.392 2.52-1.008 3.473-1.793s1.737-1.737 2.297-2.857c.56-1.064.84-2.297.84-3.64 0-1.288-.28-2.52-.84-3.64s-1.344-2.073-2.353-2.913c-1.008-.784-2.185-1.4-3.53-1.905-1.344-.448-2.8-.672-4.37-.672H124.42l7.394-9.747h17.7c3.305 0 6.33.448 9.075 1.344s5.154 2.13 7.17 3.753c1.96 1.625 3.53 3.585 4.65 5.882 1.12 2.24 1.68 4.705 1.68 7.394zm81.7 19.102h-35.515c-1.456 0-2.7-.392-3.753-1.176-1.064-.84-1.625-2.017-1.625-3.53 0-.84.224-1.68.672-2.52a7.35 7.35 0 0 1 1.85-2.13l17.7-13.948 2.913-2.24 2.073-1.456 1.288-.952-1.85.112c-.672.056-1.512.056-2.52.056l-3.64.056h-19.886l7.394-9.747h34.563c1.456 0 2.745.392 3.8 1.176 1.064.84 1.568 2.017 1.568 3.53 0 .84-.224 1.68-.672 2.465-.448.84-1.064 1.512-1.85 2.13l-17.814 14.116-2.857 2.185-2.017 1.512-1.344.952c.448-.056 1.232-.056 2.297-.112l3.64-.056 4.425-.056h18.15z" fill-rule="nonzero"/></svg>